<svg id="Capa_1" enable-background="new 0 0 512 512" height="512"  viewBox="0 0 512 512" width="512" xmlns="http://www.w3.org/2000/svg"><g><path d="m511.181 471.078-4.054-22.622c-3.522-19.726-17.418-36.229-36.264-43.066l-15.914-5.775v-25.768c.079-.076.161-.147.24-.224 9.647-9.464 15.181-22.593 15.181-36.021v-29.781c0-27.099-22.047-49.145-49.146-49.145s-49.146 22.046-49.146 49.145v30.713c0 13.94 5.951 26.625 15.437 35.618v25.878l-15.144 5.493c-15.49 5.623-27.688 17.855-33.472 33.017-5.753-15.231-17.944-27.496-33.519-33.148l-15.914-5.775v-25.77c.078-.076.16-.146.238-.223 9.647-9.464 15.181-22.593 15.181-36.021v-29.781c0-3.255-.326-6.434-.932-9.513 14.526-3.507 25.353-16.609 25.353-32.201 0-18.263-14.858-33.121-33.122-33.121-15.945 0-29.293 11.327-32.425 26.356-2.612-.431-5.288-.665-8.02-.665-27.099 0-49.146 22.046-49.146 49.145v30.713c0 13.941 5.951 26.626 15.438 35.619v25.874l-15.142 5.494c-15.491 5.62-27.69 17.853-33.474 33.018-5.753-15.231-17.944-27.496-33.52-33.148l-15.923-5.776v-25.761c.081-.078.166-.151.246-.23 9.647-9.464 15.181-22.593 15.181-36.021v-29.781c0-27.099-22.047-49.145-49.146-49.145s-49.146 22.046-49.146 49.145v30.713c0 13.942 5.952 26.628 15.44 35.621v25.874l-15.154 5.493c-18.581 6.745-32.427 22.99-36.136 42.394l-4.355 22.755c-1.959 10.221.721 20.683 7.351 28.705 6.632 8.018 16.407 12.621 26.817 12.621h11.896c4.142 0 7.5-3.357 7.5-7.5s-3.358-7.5-7.5-7.5h-11.896c-5.922 0-11.483-2.618-15.256-7.183-3.771-4.563-5.295-10.513-4.181-16.326l4.356-22.759c2.722-14.24 12.884-26.162 26.518-31.111l16.504-5.983c8.124 5.71 17.69 8.563 27.254 8.563 9.72 0 19.438-2.948 27.635-8.833l16.878 6.122c13.822 5.016 24.021 17.127 26.614 31.605l4.042 22.61c.209 1.188.316 2.386.316 3.567-.007 10.878-8.886 19.728-19.793 19.728h-69.77c-4.142 0-7.5 3.357-7.5 7.5s3.358 7.5 7.5 7.5h69.77c11.051 0 20.911-5.181 27.289-13.234 6.379 8.052 16.245 13.234 27.308 13.234h110.887c10.328 0 20.052-4.541 26.679-12.46.215-.257.414-.523.621-.785.165.209.321.423.492.629 6.631 8.018 16.401 12.616 26.805 12.616h110.887c10.325 0 20.048-4.539 26.676-12.454 6.631-7.919 9.394-18.292 7.58-28.468zm-455.075-163.259c0-18.827 15.318-34.145 34.146-34.145 16.89 0 30.946 12.329 33.663 28.457-2.27 1.234-4.661 2.366-7.145 3.36-14.143 5.663-26.611 5.326-31.161 2.135-3.391-2.378-8.068-1.559-10.447 1.834-2.378 3.391-1.558 8.068 1.833 10.447 4.752 3.333 11.421 4.994 19.074 4.994 8.036 0 17.155-1.832 26.276-5.484.691-.277 1.372-.57 2.052-.864v19.047c0 9.426-3.895 18.652-10.685 25.313-6.592 6.466-15.144 9.963-24.133 9.759-18.458-.355-33.474-15.671-33.474-34.14v-30.713zm15.44 93.486v-17.379c5.496 2.293 11.479 3.624 17.745 3.744.313.006.625.009.938.009 6.516 0 12.857-1.32 18.742-3.826v17.463c-11.126 7.879-26.284 7.884-37.425-.011zm315.532-93.486c0-18.827 15.317-34.145 34.146-34.145 16.89 0 30.946 12.328 33.663 28.457-2.269 1.234-4.661 2.365-7.145 3.36-14.143 5.663-26.611 5.327-31.161 2.136-3.39-2.38-8.068-1.56-10.447 1.833-2.378 3.391-1.558 8.068 1.833 10.446 4.751 3.334 11.421 4.995 19.073 4.995 8.036 0 17.156-1.832 26.277-5.484.691-.277 1.372-.57 2.052-.864v19.047c0 9.426-3.895 18.652-10.685 25.313-6.592 6.466-15.146 9.963-24.133 9.759-18.458-.355-33.474-15.671-33.474-34.14v-30.713zm33.184 79.851c.313.006.625.009.938.009 6.518 0 12.861-1.321 18.749-3.829v17.465c-11.129 7.875-26.291 7.883-37.435-.011v-17.38c5.497 2.294 11.482 3.625 17.748 3.746zm-124.08-139.686c9.992 0 18.122 8.129 18.122 18.121 0 9.131-6.789 16.687-15.578 17.931-4.722-8.5-11.892-15.454-20.55-19.917.993-9.061 8.686-16.135 18.006-16.135zm-74.59 59.835c0-18.827 15.317-34.145 34.146-34.145s34.146 15.317 34.146 34.145v1.093c-1.631 1.051-3.36 1.96-5.181 2.689-12.252 4.904-26.157 1.391-34.599-8.745-2.651-3.182-7.381-3.613-10.563-.962-3.183 2.651-3.613 7.381-.962 10.563 8.821 10.588 21.627 16.341 34.791 16.341 5.531 0 11.126-1.024 16.514-3.125v11.927c0 9.426-3.895 18.652-10.685 25.313-6.592 6.466-15.145 9.963-24.133 9.759-18.458-.355-33.474-15.671-33.474-34.14zm33.184 79.851c.313.006.625.009.938.009 6.519 0 12.863-1.322 18.75-3.83v17.683l-18.721 16.341-18.714-16.344v-17.604c5.497 2.293 11.481 3.624 17.747 3.745zm71.841 102.243c-3.77 4.504-9.301 7.087-15.176 7.087h-110.887c-10.92 0-19.804-8.848-19.804-19.732 0-1.231.121-2.473.367-3.776l4.354-22.755c2.731-14.247 12.897-26.17 26.531-31.116l16.203-5.879 22.602 19.737c1.413 1.233 3.173 1.851 4.934 1.851 1.759 0 3.519-.616 4.932-1.85l22.947-20.028 16.642 6.039c13.823 5.016 24.021 17.127 26.614 31.605l4.045 22.628c1.036 5.783-.533 11.684-4.304 16.189zm165.484.002c-3.771 4.503-9.302 7.085-15.176 7.085h-110.887c-5.918 0-11.475-2.615-15.246-7.176-3.774-4.563-5.301-10.518-4.19-16.333l4.355-22.755c2.73-14.244 12.897-26.167 26.53-31.115l16.494-5.982c8.124 5.707 17.691 8.557 27.257 8.557 9.722 0 19.441-2.947 27.639-8.829l16.87 6.122c13.832 5.02 24.029 17.129 26.615 31.608l4.054 22.62c1.031 5.789-.541 11.692-4.315 16.198z"/><path d="m248.943 153.279v43.752c0 4.142 3.358 7.5 7.5 7.5s7.5-3.358 7.5-7.5v-43.752c38.856-3.783 69.328-36.624 69.328-76.454 0-42.361-34.465-76.825-76.828-76.825s-76.828 34.464-76.828 76.825c0 39.831 30.472 72.672 69.328 76.454zm7.5-138.279c34.092 0 61.828 27.735 61.828 61.825s-27.736 61.825-61.828 61.825-61.828-27.735-61.828-61.825 27.736-61.825 61.828-61.825z"/><path d="m237.253 105.164c1.464 1.464 3.384 2.197 5.303 2.197s3.839-.732 5.303-2.197l43.135-43.134c2.929-2.929 2.929-7.677 0-10.606-2.929-2.93-7.678-2.929-10.606 0l-37.832 37.831-10.058-10.058c-2.929-2.93-7.678-2.929-10.606 0-2.929 2.929-2.929 7.678 0 10.606z"/><path d="m256.443 214.796c-4.147 0-7.509 3.362-7.509 7.509s3.362 7.509 7.509 7.509 7.509-3.362 7.509-7.509-3.362-7.509-7.509-7.509z"/></g></svg>