<svg height="512" viewBox="0 0 60 60" width="512" xmlns="http://www.w3.org/2000/svg"><g id="Page-1" fill="none" fill-rule="evenodd"><g id="039---Pressure-Washer" fill="rgb(0,0,0)" fill-rule="nonzero"><path id="Shape" d="m11.749 54c-.5261602.0099862-1.0316724-.2045838-1.39-.59-.2490649-.2658396-.37055284-.6266551-.333-.989.0500704-.3590965-.0981523-.7171651-.38737877-.9358095-.28922647-.2186443-.67414364-.2636095-1.00597795-.117516s-.55859731.4603571-.59264328.8213255c-.10426004.9298473.1966685 1.8595926.826 2.552.73802418.8108475 1.7866159 1.2687653 2.883 1.259.5522847 0 1-.4477153 1-1s-.4477153-1-1-1z"/><path id="Shape" d="m60 41.5c-.0044079-3.5880235-2.9119765-6.4955921-6.5-6.5-.849048.0006513-1.6894397.1706334-2.472.5l-4.752-6.176c.7696497-.8889487.9432849-2.1479015.443-3.212l-2.058-4.412c-.3949919-.8478396-1.0325338-1.5595061-1.832-2.045l-.405-.246c-.400623-.2405969-.8346631-.4205482-1.288-.534l-4.377-9.391c.41887-.57850998.4875603-1.33985997.179-1.984l-2.959-6.345c-.2242348-.48096227-.6304221-.85309199-1.1291327-1.03445833-.4987105-.18136635-1.0490557-.1570993-1.5298673.06745833l-3.62 1.69c-.1430446.06790054-.2773529.15285056-.4.253-2.144-1.948-5.512-2.363-8.288-2.013-2.606.336-5.89 1.446-7.294 3.555-.7112111 1.06553326-.9102849 2.39269235-.543 3.62.4577793 1.43946585 1.3499509 2.70192014 2.554 3.614 1.7504827 1.3814781 3.6193891 2.6058879 5.585 3.659 1.8112143.9693881 3.537933 2.0889789 5.162 3.347 3.737 3.071 6.1 6.9 6.469 10.5.426 4.1-1.751 7.38-4.506 10.285l-.094-.81c-.2309617-1.9566055-1.0484327-3.797571-2.345-5.281v-6.607c-.0033074-3.3123376-2.6876624-5.9966926-6-6h-4c-3.3123376.0033074-5.99669262 2.6876624-6 6v6.627c-1.28656693 1.4805751-2.09774716 3.3140933-2.328 5.262l-1.172 10.111h-2.5c-1.1045695 0-2 .8954305-2 2v8c0 1.1045695.8954305 2 2 2h4c.73914667-.0027712 1.4161188-.4141886 1.759-1.069 1.21270565.7013614 2.5890855 1.0701208 3.99 1.069h8.519c1.395853.0018328 2.7675537-.3641151 3.977-1.061.3453611.6495056 1.0193942 1.056998 1.755 1.061h4c1.1045695 0 2-.8954305 2-2v-8c0-1.1045695-.8954305-2-2-2h-2.482l-.784-6.754c3.45-3.382 6.77-7.564 6.2-13.039-.43-4.121-3.05-8.436-7.191-11.839-1.7095711-1.3294042-3.5279877-2.5125792-5.436-3.537-1.8654336-.994461-3.6390414-2.1523258-5.3-3.46-.8860701-.65391722-1.55139-1.56275746-1.907-2.605-.2162767-.66911636-.1134283-1.40048277.279-1.984.971-1.452 3.656-2.392 5.885-2.682 2.244-.281 5.165.03 6.808 1.637l-.673.313c-.9614122.44847836-1.7052891 1.26050921-2.0679848 2.25745361s-.3144999 2.09713712.1339848 3.05854639l.423.906c.4456725.9629684 1.2566498 1.7086868 2.2535405 2.0721991.9968906.3635123 2.0975327.3148584 3.0584595-.1351991l1.162-.542c.2822008.1939481.6098562.3114354.951.341l4.383 9.4c-.2045779.4205611-.3457749.8690889-.419 1.331l-.071.467c-.1435351.9248511-.0081011 1.8714963.389 2.719l2.057 4.412c.4950156 1.0558595 1.5548644 1.7312648 2.721 1.734.1035308-.0058368.206677-.0171862.309-.034l.688 2.922c-3.7501724 1.8050623-5.8876805 5.8420055-5.2727932 9.9583092.6148874 4.1163038 3.8388257 7.3523621 7.9527932 7.9826908.3895453 3.4752857 2.9912154 6.2947979 6.4240399 6.9619353s6.9011336-.9727311 8.5639436-4.0491607 1.1347101-6.8763569-1.3039835-9.3827746c1.4413039-1.231856 2.2696325-3.0340008 2.266-4.93zm-46-19.5h4c2.209139 0 4 1.790861 4 4v4.831c-3.6275381-2.4452076-8.3769509-2.4408539-12 .011v-4.842c0-2.209139 1.790861-4 4-4zm-12 36v-8h2.267l-.2 1.729c-.24374528 2.0635248.41740134 4.1315681 1.813 5.671.038.042.081.079.12.121v.479zm9.749 0c-1.6668746.0098163-3.25877613-.6919154-4.376-1.929-1.01353439-1.1155194-1.49488056-2.6149856-1.32-4.112l1.605-13.839c.57491321-4.1487072 4.1656011-7.2093677 8.353-7.12 4.1859428-.0885585 7.7744611 2.9724515 8.347 7.12l1.607 13.839c.1748499 1.4967079-.3065111 2.9958556-1.32 4.111-.11.124-.228.237-.348.35l-.007.007c-1.09234 1.015944-2.5302491 1.5783088-4.022 1.573zm18.251-8v8h-4v-.461c.045-.048.094-.09.138-.139 1.3960653-1.5391629 2.0572815-3.6074237 1.813-5.671l-.201-1.729zm7.1-30.315-3.852-8.26 1.812-.845 3.852 8.26c-.3280633.0722984-.6475212.1792313-.953.319-.3044151.1439337-.5924146.3202873-.859.526zm-4.934-17.685 2.96 6.343-3.626 1.691-2.959-6.344zm-3.809 8.4c-.4808596.2253209-1.0317332.2495267-1.5305029.0672514s-.9042295-.55597284-1.1264971-1.0382514l-.423-.907c-.4661562-1.00102686-.0328329-2.19042757.968-2.657l.906-.423 2.113 4.532zm11.111 19.09-2.058-4.412c-.2284003-.4899869-.3063537-1.0367045-.224-1.571l.071-.468c.1372831-.9052122.7184024-1.6816893 1.5481781-2.0686365s1.7981297-.3330323 2.5798219.1436365l.405.246c.4620651.2806733.8305823.6919928 1.059 1.182l2.057 4.413c.2327419.5003839.0161322 1.0947178-.484 1.328l-3.622 1.691c-.2407343.1130356-.5165793.1255204-.7665403.0346937-.2499611-.0908267-.4534458-.2774823-.5654597-.5186937zm16.162 15.967c-.3072401.1621127-.5083351.47206-.5311722.8186945-.0228371.3466346.1358561.6802855.4191722.8813055 2.2987208 1.6638726 3.1174606 4.7106325 1.9623957 7.3026229-1.155065 2.5919903-3.9680467 4.0203514-6.7422917 3.4235654-2.7742451-.596786-4.7510506-3.0555094-4.738104-5.8931883.0009233-.5300409-.4118816-.9687283-.941-1-3.323658-.1994754-6.1178918-2.5663405-6.8613377-5.8119193-.7434459-3.2455787.7419079-6.5927442 3.6473377-8.2190807l2.181 9.268c.0818138.3479767.3430562.6258733.6853198.7290088s.7135503.0158412.974-.229c.2604498-.2448412.370494-.6100321.2886802-.9580088l-3.395-14.42 2.011-.937 8.617 11.2c.217932.2833116.5704544.428837.9247755.3817581.3543211-.0470788.6566109-.2796095.793-.61.136389-.3303904.0861565-.7084465-.1317755-.9917581l-2.483-3.229c.3874046-.1082151.7877652-.1630544 1.19-.163 2.0571517.0058955 3.8483955 1.4060628 4.350826 3.4009241s-.411888 4.0764579-2.220826 5.0560759z"/><path id="Shape" d="m16 33c-3.3137085 0-6 2.6862915-6 6s2.6862915 6 6 6 6-2.6862915 6-6c-.0033074-3.3123376-2.6876624-5.9966926-6-6zm0 10c-2.0117689.0025048-3.7110655-1.4923684-3.9650329-3.4880439-.2539673-1.9956756 1.0167587-3.8685104 2.9650329-4.3699561v2.858c0 .5522847.4477153 1 1 1s1-.4477153 1-1v-2.858c1.9482742.5014457 3.2190002 2.3742805 2.9650329 4.3699561-.2539674 1.9956755-1.953264 3.4905487-3.9650329 3.4880439z"/></g></g></svg>